<?xml version="1.0" encoding="UTF-8"?>
<svg version="1.1" viewBox="0 0 2048 1604" width="1280" height="1280" xmlns="http://www.w3.org/2000/svg">
<path transform="translate(975,749)" d="m0 0h59l-10 10-2 6-1 8v140l3 9 2 4-1 4-16 2h-21l-11-1 4-7 5-9 1-17v-30l-2-9-6-9-6-5-11-5-22-6 2-2h35l8-2 1-1v-65l-6-9-5-4z" fill="#DBDBDB"/>
<path transform="translate(551,749)" d="m0 0h11l-10 10-2 4-1 15v133l2 9 6 7 4 4h-39l-12-1-1-2 4-8 1-4 1-13v-106l-1-32-3-8-2-3v-3l5-1z" fill="#FEFEFE"/>
<path transform="translate(764,730)" d="m0 0h2l1 181 2 8 4 6 3 4v2h-24l-26-1 6-8 2-6 1-7v-141l-2-12-3-6-9-4v-2l28-8z" fill="#FEFEFE"/>
<path transform="translate(918,749)" d="m0 0h2l-1 3-7 5-2 5-1 9v140l2 9 4 6 5 5-56-1 5-4 4-8 1-4 1-13v-128l-2-11-3-6-5-6z" fill="#DBDBDB"/>
<path transform="translate(1225,805)" d="m0 0 13 2 12 4 13 7 12 11 8 10 11 18 9 17 8 16 8 15 7 10 7 7 10 5h12l12-4 10-7 8-7v3l-6 7-11 7-10 4-13 2h-20l-15-3-12-6-10-9-8-11-10-19-10-24-9-21-8-15-8-10-10-8z" fill="#DBDBDB"/>
<path transform="translate(1495,805)" d="m0 0h10l12 3 8 7 4 7 2 8 1 15 1 63 2 9 4 4 3 1h7l6-1-3 3-11 5-14 3h-10l-8-3-6-7-3-8-1-6v-17l1-32v-16l-2-17-4-8-4-3h-12l-12 6h-3l7-6 16-8z" fill="#DBDBDB"/>
<path transform="translate(663,805)" d="m0 0h12l12 3 7 6 6 12 2 15v17l-1 43 2 15 4 5 8 3-3 4-11 3-13 1-9-3-6-7-3-8-1-18v-63l-3-10-4-6-4-2h-12l-10 5h-3l7-6 15-7z" fill="#FEFEFE"/>
<path transform="translate(616,804)" d="m0 0 2 1 1 108 3 8 5 6 6 4v1l-59-1v-2l7-4 4-7 1-6v-81l-3-7-5-4-2-1v-2l16-4z" fill="#FDFDFD"/>
<path transform="translate(1445,805)" d="m0 0h3l1 18 1 91 8 16-7 1-45 1 1-4 5-5 3-4 2-6 1-9v-24l-1-48-4-8-5-4-4-3 27-7z" fill="#DBDBDB"/>
<path transform="translate(1107,805)" d="m0 0h14l11 3 7 7 5 10 2 18v67l4 10 3 2 7 2-3 3-8 3-5 1h-14l-7-3-7-6-3-9v-92l-2-9-1-3-5-2z" fill="#DBDBDB"/>
<path transform="translate(1146,806)" d="m0 0h54l-6 8 3 9 18 36 8 14 5 5 2 1 4-1 1 2-11 30-8 18h-2l-9-21-17-35-10-19-11-20-12-17-4-5-2-1v-2l-3-1z" fill="#DBDBDB"/>
<path transform="translate(803,846)" d="m0 0 2 2 4 11 7 13 10 14 14 21 7 9 7 5 7 2 4 1-8 5-13 3h-9l-10-2-7-4-7-6-9-13-12-19-9-14-3-5 12-11z" fill="#FEFEFE"/>
<path transform="translate(1095,858)" d="m0 0 4 1-10 6-7 8-4 9-2 13 1 14 6 12 4 2 1 1h6v3l-7 3-4 1h-17l-11-4-8-7-5-10-1-5v-8l3-11 7-11 9-7 11-5 17-4z" fill="#DBDBDB"/>
<path transform="translate(1348,805)" d="m0 0 10 2 12 6 10 9 7 11 5 13 2 14-1 1h-44l-1-3 9-5 3-6v-18l-3-10-7-11z" fill="#DBDBDB"/>
<path transform="translate(1329,804)" d="m0 0v3l-7 8-7 14-6 19-1 8-3-2-7-14-9-13 1-4 15-10 12-5z" fill="#DCDCDC"/>
<path transform="translate(805,806)" d="m0 0h49l-1 3-16 10-14 11-6 5-2-1 3-5v-7l-5-8-8-6z" fill="#FEFEFE"/>
<path transform="translate(1445,805)" d="m0 0h3v18l-6-1-3 4-8 1-15 2-4-6-8-5 4-2 26-7z" fill="#FEFEFE"/>
<path transform="translate(1057,807)" d="m0 0 8 2 10 1h12l-5 5-8 7-9 12-8 15-2-1 1-7z" fill="#DCDCDC"/>
<path transform="translate(1225,805)" d="m0 0 13 2 12 4 13 7 8 7h-3l-4-3h-4l-4 1v2l-5 1v4h-2l-1 3-7-12-8-9-8-6z" fill="#FEFEFE"/>
<path transform="translate(1057,807)" d="m0 0 8 2 10 1h12l-5 5-6 4-2-6h-9l-4 2-1 11 1 7 4 1-8 15-2-1 1-7z" fill="#FEFEFE"/>
<path transform="translate(1348,805)" d="m0 0 10 2 12 6 10 9 5 8-3-1-4-5-2-1v-2h-2v-2l-15-3-2 3-7-11z" fill="#FEFEFE"/>
<path transform="translate(941,832)" d="m0 0 34 1-4 2-1 6 1 2-9-3-22-6z" fill="#FEFEFE"/>
<path transform="translate(1329,804)" d="m0 0v3l-5 5-7-1-11 4-14 10-2 3-1-4 13-9 12-6z" fill="#FEFEFE"/>
<path transform="translate(1486,807)" d="m0 0h3l-2 5h2v2l-11 1-12 6h-3l7-6z" fill="#FEFEFE"/>
<path transform="translate(865,750)" d="m0 0h21v2l-10 1-3 6-5-5z" fill="#FEFEFE"/>
<path transform="translate(1385,909)" d="m0 0v3l-6 7-11 7-5 2v-2l-2-1 9-4 11-8z" fill="#FDFDFD"/>
<path transform="translate(1356,854)" d="m0 0 5 5 3 1v1h-15l-1-3z" fill="#FEFEFE"/>
<path transform="translate(626,927)" d="m0 0 6 3 1 2h-10l-4-2 6-1z" fill="#E7E7E7"/>
<path transform="translate(1095,858)" d="m0 0 4 1-11 6 1-4-2-1 1-1z" fill="#FEFEFE"/>
<path transform="translate(872,921)" d="m0 0 1 4v5h-9l5-4z" fill="#FEFEFE"/>
<path transform="translate(918,749)" d="m0 0h2l-1 3-7 4 1-4-4-1 1-1z" fill="#FEFEFE"/>
<path transform="translate(862,930)" d="m0 0 2 1z" fill="#FEFEFE"/>
<path transform="translate(630,823)" d="m0 0" fill="#FEFEFE"/>
<path transform="translate(631,822)" d="m0 0" fill="#FEFEFE"/>
<path transform="translate(632,821)" d="m0 0" fill="#FEFEFE"/>
</svg>
