<?xml version="1.0" encoding="UTF-8"?>
<svg version="1.1" viewBox="0 0 2048 1395" width="1280" height="1280" xmlns="http://www.w3.org/2000/svg">
<path transform="translate(958,531)" d="m0 0h58l-10 10-2 4-1 22v111l1 16 4 6 5 4 4 3h-60l3-3 6-4 4-8v-49l-4-10-9-8-11-5-16-4-22-3-1-2h59l4-4v-59l-3-8-9-8z" fill="#5E27B3"/>
<path transform="translate(501,531)" d="m0 0h59l-3 3-7 6-3 6v146l4 8 5 4 5 2v1h-60l4-4 6-5 2-5v-146l-3-7-1-3-4-2z" fill="#3B295C"/>
<path transform="translate(754,513)" d="m0 0h3l1 179 4 8 10 6v1h-59l4-4 6-4 3-7v-150l-3-8-5-4-6-2v-2l21-6z" fill="#3B295C"/>
<path transform="translate(849,531)" d="m0 0h58l-10 10-2 5-1 10v128l1 10 6 8 7 4v1h-60l10-8 3-7v-145l-3-7-5-5z" fill="#5F27B3"/>
<path transform="translate(1196,584)" d="m0 0 12 1 16 4 10 5 13 11 11 15 13 23 17 35 8 12 5 6 6 4 6 2h13l13-4 10-7 8-9 3-5 1 2-5 9-6 7-9 6-9 4-9 2-9 1h-10l-15-2-14-5-11-8-6-7-8-13-9-19-13-31-11-21-9-10-12-7z" fill="#5E27B2"/>
<path transform="translate(654,585)" d="m0 0h19l9 4 5 5 5 8 2 8 1 12-1 56 1 11 4 8 2 1h12l-5 5-12 4-7 1h-9l-9-3-5-6-3-12v-75l-3-10-3-5-4-2h-11l-9 4-7 3 2-4 10-7 8-4z" fill="#3B295C"/>
<path transform="translate(1457,585)" d="m0 0h19l8 3 7 6 5 10 2 17v67l4 8 3 2h11v2l-10 5-13 3h-9l-9-3-5-5-3-8-1-82-4-11-5-4h-13l-12 6h-3l9-8 14-7z" fill="#5E27B2"/>
<path transform="translate(611,584)" d="m0 0 3 1 1 108 4 7 9 6v1h-59l3-3 8-5 3-7v-78l-3-9-4-4-7-3 2-2 22-6z" fill="#3B295C"/>
<path transform="translate(1413,585)" d="m0 0h4l1 107 4 8 10 6v1h-59l3-3 6-4 3-4 2-11v-60l-1-14-4-8-4-3-6-2 2-2 30-8z" fill="#5E27B3"/>
<path transform="translate(1084,585)" d="m0 0h20l8 4 7 8 3 6 1 5 1 80 4 8v2h14l-5 5-12 4-6 1h-8l-10-3-5-6-3-7-1-8v-21l1-34v-15l-1-17-3-7-5-3z" fill="#5E27B3"/>
<path transform="translate(1123,586)" d="m0 0h54l-6 7 1 6 24 48 7 8 8-1-3 10-16 44h-2l-6-18-9-20-9-19-13-23-10-18-12-16-8-7z" fill="#5E27B3"/>
<path transform="translate(792,625)" d="m0 0h2l4 12 10 17 20 30 9 11 5 3 11 1-5 4-13 4-16 1-10-3-10-9-7-10-13-22-7-11-4-5 12-12 8-7z" fill="#3B285C"/>
<path transform="translate(1080,635)" d="m0 0h2v2l-14 7-6 7-4 8-1 5v20l4 10 5 4 2 1h9l6-2-5 5-10 4-10 2-12-1-10-4-7-6-5-10-1-4v-13l4-10 6-8 11-8 13-5z" fill="#5E27B2"/>
<path transform="translate(1318,584)" d="m0 0 16 4 11 7 9 10 5 10 4 13 1 11-18 1h-41l3-2 14-3 6-4 3-4 1-9-2-15-5-10-7-8z" fill="#5E27B3"/>
<path transform="translate(1302,584)" d="m0 0 3 1-10 9-6 10-5 16-2 15-3-1-10-19-7-9 1-4 10-8 12-6z" fill="#5E27B2"/>
<path transform="translate(791,586)" d="m0 0h55l-2 2-10 5-12 8-11 9-6 5v-3l2-5v-6l-5-8-11-6z" fill="#3B295C"/>
<path transform="translate(1037,587)" d="m0 0 10 2h15l8-1-5 5-8 7-8 9-9 15-4 8-2-1 2-11 1-19z" fill="#5D27B0"/>
<path transform="translate(802,616)" d="m0 0" fill="#3B295C"/>
<path transform="translate(803,615)" d="m0 0" fill="#3B295C"/>
</svg>
