<?xml version="1.0" encoding="UTF-8"?>
<svg version="1.1" viewBox="0 0 1280 1280" width="1280" height="1280" xmlns="http://www.w3.org/2000/svg">
<path transform="translate(0)" d="m0 0h1280v1280h-1280z" fill="#FBFAFB"/>
<path transform="translate(796,225)" d="m0 0 2 1-1 4-8 16-12 23-14 24-11 18-15 23-8 13-9 14 1 1 11-9 37-37 7-8 3-1-2 9-7 25-4 16-6 19-4 13-5 15-10 26-9 23-9 17-8 16-10 18-7 10-9 13-10 13-11 14-5 6-1 3 14-11 5-5h2l2-4 11-10 7-8 9-10 21-28h1l-1 21-7 28-7 19-8 17-9 16-4 5-4 7h-2v2h-2v3l-3 1-1 3-2 1-1 4-3 1-1 3-6 5-1 3h-3v4l-3 1-3 3-1 3-13 13-7 8-10 14-8 16-1 7v14l2 12 4 10 3 6 3 3 4 7 16 16-3 21-3 19-1 12-1 55-1 10v12l7-18 12-23 10-15 11-14 12-13 11-11 14-11 10-7 11-7 19-9 21-7 12-3 13-2h27v-261l3-7 4-3 3-1h7l5 3 4 5 7 21 8 15 6 8 7 8 5 5 7 6 11 6 16 5 3 4 5 15 8 16 9 13 15 16 11 9 11 7 13 7 5 6v300l-4 7-4 2h-8l-16-8-22-10-20-8-14-5-25-7-11-3-28-6-21-3-14-1-32-1-25 1-20 3-19 5-19 7-18 10-5 4-5 10-5 5-6 3-16 2-24-1-8-3-7-8-6-9-11-8-12-6-14-5-18-5-17-3-10-1-33-1-24 1-16 2-19 3-30 6-34 10-28 11-20 9-21 11h-8l-6-4-2-3-1-12v-284l2-10 5-4 14-7 13-9 12-11 7-7 10-13 3-6 7-13 6-17 4-3 9-3 14-7 11-9 7-7 10-14 8-16 6-19 7-6h11l6 5 1 2v263h18l21 2 20 6 19 7 16 8 16 10 12 9 6 5 15 15 9 11 10 13 7 11 3 3-3-12-6-17-4-9-8-16-9-13-4-4v-6l5-12 2-14 1-16v-17l-1-27v-53l3-32 4-24 7-32 4-14 9-30 8-20 8-21 7-16 16-32 12-23 1-3-7 11-7 10-11 18-11 20-12 26-4 9-11 27-10 30-8 32-5 26-3 27-1 20v9l-1 2-4-2-15-20-10-15-9-16-6-14-4-13-4-18v-42l3-15 3-9 2 2 2 20 4 16 6 17 2 3-2-20-1-30 2-26 6-25 5-15 11-24 7-12 3-2-1 11-2 10-1 12v25l3 21 3 12 1 3 2-34 3-22 4-18 7-22 9-22 10-18 7-10 8-11 12-14 3-4h2l2-4 10-10h2v-2l11-9 10-9 17-12 15-10 21-12 16-8 11-5 15-6z" fill="#6308A9"/>
<path transform="translate(935,627)" d="m0 0 3 1v2h2l8 10 13 12 16 11 7 4 1 32v208l-1 24-5-1-16-8-17-7-18-6-36-10-13-3-17-3-28-4-15-1h-43l-15 1-23 4-23 6-16 6 2-5 12-11 14-10 13-8 15-8 21-8 24-6 15-2 13-1h20l29 3 22 5 17 6 2 1h8l6-4 2-5z" fill="#FBFAFB"/>
<path transform="translate(356,628)" d="m0 0h1v122l1 104 3 5 3 2h9l24-8 19-4 29-3h16l31 3 21 5 20 7 14 6 14 8 17 12 13 11 6 7-10-3-11-4-24-6-17-3-14-1h-54l-37 5-16 3-37 10-30 10-16 6-19 9h-4v-255l1-9 10-6 14-10 15-14z" fill="#FBFAFB"/>
<path transform="translate(861,545)" d="m0 0 5 5 14 15 11 9 15 7 5 3v246l-1 2-12-2-16-4-20-3h-49l-18 3-27 7-25 10-23 12-12 8-13 10-10 9-11 11-1-2 7-16 9-16 12-16 12-14 11-11 14-11 14-10 16-8 14-6 14-4 15-2h26l7 1h10l4-3 2-5z" fill="#FBFAFB"/>
<path transform="translate(430,547)" d="m0 0h1l1 224 2 4 6 3 10-1 8-1h18l20 3 19 6 18 8 12 7 14 10 11 9 17 17 14 19 8 13 8 15 2 8-7-6-7-7-2-1v-2l-4-2-13-10-14-9-23-12-14-6-11-4-21-5-27-4h-49l-27 5-14 4h-4v-245l2-4 16-8 9-7 10-9z" fill="#FBFAFB"/>
<path transform="translate(723,584)" d="m0 0 3 1 3 12v10l-2 16-5 15-7 11-8 10-11 10-23 16-14 9-11 9-7 8-4 6-2-4v-9l7-16 9-13 12-13 7-7h2l2-4h2l1-3h2l2-4h2l2-4 7-8h2l2-4 8-11 7-11 9-17z" fill="#6308A9"/>
<path transform="translate(519,587)" d="m0 0h3l15 30 6 8v2h2l8 10 21 21 9 14 2 5v8h-3l-10-10-19-12-17-12-8-9-8-15-3-10v-25z" fill="#6308A9"/>
<path transform="translate(620,755)" d="m0 0 6 1 5 6v10l-5 6 3 13 4 15 4 17 4 26v23l-2-2-5-32-7-33-7-23-2-5-5-4-2-4v-6l4-6z" fill="#FBFAFB"/>
</svg>
